<svg width="34" height="34" viewBox="0 0 34 34" fill="none" xmlns="http://www.w3.org/2000/svg">
<g filter="url(#filter0_ii_2213_434)">
<g clip-path="url(#clip0_2213_434)">
<rect x="0.0964355" width="33.9036" height="34" rx="8.44337" fill="#2B3238"/>
<ellipse cx="17.2176" cy="17.17" rx="25.5972" ry="25.67" fill="url(#paint0_linear_2213_434)"/>
<g filter="url(#filter1_di_2213_434)">
<path d="M40.7806 -9.39169C40.7806 -2.35006 40.4415 21.8883 15.0138 17.9783C-10.4139 14.0683 -4.31121 27.3999 -4.31121 20.3583C-4.31121 13.3167 -5.23024 -9.39169 1.79143 -9.39169C8.81309 -9.39169 40.7806 -16.4333 40.7806 -9.39169Z" fill="#3C95FF"/>
</g>
<g filter="url(#filter2_ddi_2213_434)">
<path d="M9.44481 15.2584C9.1116 15.2584 8.82552 15.1418 8.58655 14.9085C8.35095 14.6718 8.23315 14.3885 8.23315 14.0586C8.23315 13.732 8.35095 13.452 8.58655 13.2187C8.82552 12.9854 9.1116 12.8688 9.44481 12.8688C9.76792 12.8688 10.0506 12.9854 10.293 13.2187C10.5353 13.452 10.6565 13.732 10.6565 14.0586C10.6565 14.2786 10.5992 14.4802 10.4848 14.6635C10.3737 14.8435 10.2273 14.9884 10.0456 15.0984C9.86384 15.2051 9.66358 15.2584 9.44481 15.2584Z" fill="white"/>
<path d="M16.1951 7.44968C16.3894 7.44968 16.5469 7.60719 16.5469 7.80149V8.69762C16.5469 8.89191 16.3894 9.04942 16.1951 9.04942H12.2288C12.0345 9.04942 11.877 8.89191 11.877 8.69762V7.80149C11.877 7.60719 12.0345 7.44968 12.2288 7.44968H16.1951ZM12.9372 5.96179C12.9372 5.76749 13.0947 5.60999 13.289 5.60999H14.736C14.9303 5.60999 15.0878 5.76749 15.0878 5.96179V12.7688C15.0878 12.9654 15.1181 13.1188 15.1787 13.2287C15.2393 13.3354 15.3234 13.4104 15.4311 13.4537C15.5422 13.497 15.6701 13.5187 15.8148 13.5187C15.9158 13.5187 16.0168 13.5104 16.1177 13.4937V13.4937C16.2469 13.4681 16.3719 13.5513 16.3994 13.68L16.6211 14.719C16.6591 14.897 16.5546 15.0737 16.3774 15.1156C16.3326 15.1262 16.2847 15.1371 16.2339 15.1484C16.0387 15.1951 15.8014 15.2234 15.522 15.2334C15.0037 15.2534 14.5493 15.1851 14.1589 15.0284C13.7718 14.8718 13.4706 14.6285 13.2552 14.2986C13.0398 13.9686 12.9338 13.552 12.9372 13.0488V5.96179Z" fill="white"/>
<path d="M21.7073 15.2784C20.9231 15.2784 20.2449 15.1134 19.6727 14.7835C19.1039 14.4502 18.6647 13.9869 18.355 13.3937C18.0454 12.7971 17.8906 12.1056 17.8906 11.3191C17.8906 10.5258 18.0454 9.83263 18.355 9.23939C18.6647 8.64282 19.1039 8.17956 19.6727 7.84962C20.2449 7.51634 20.9231 7.3497 21.7073 7.3497C22.4915 7.3497 23.168 7.51634 23.7368 7.84962C24.309 8.17956 24.7499 8.64282 25.0595 9.23939C25.3692 9.83263 25.524 10.5258 25.524 11.3191C25.524 12.1056 25.3692 12.7971 25.0595 13.3937C24.7499 13.9869 24.309 14.4502 23.7368 14.7835C23.168 15.1134 22.4915 15.2784 21.7073 15.2784ZM21.7174 13.6287C22.0741 13.6287 22.372 13.5287 22.611 13.3287C22.8499 13.1254 23.03 12.8488 23.1512 12.4989C23.2757 12.1489 23.338 11.7506 23.338 11.3041C23.338 10.8575 23.2757 10.4592 23.1512 10.1092C23.03 9.75931 22.8499 9.48268 22.611 9.27938C22.372 9.07608 22.0741 8.97443 21.7174 8.97443C21.3573 8.97443 21.0543 9.07608 20.8086 9.27938C20.5663 9.48268 20.3829 9.75931 20.2583 10.1092C20.1372 10.4592 20.0766 10.8575 20.0766 11.3041C20.0766 11.7506 20.1372 12.1489 20.2583 12.4989C20.3829 12.8488 20.5663 13.1254 20.8086 13.3287C21.0543 13.5287 21.3573 13.6287 21.7174 13.6287Z" fill="white"/>
<path d="M12.0229 28.365C11.4339 28.365 10.9004 28.215 10.4225 27.9151C9.94792 27.6118 9.57096 27.1668 9.29161 26.5803C9.01562 25.9904 8.87763 25.2672 8.87763 24.4106C8.87763 23.5308 9.02067 22.7992 9.30676 22.216C9.59284 21.6294 9.97317 21.1912 10.4477 20.9012C10.9257 20.6079 11.449 20.4613 12.0178 20.4613C12.452 20.4613 12.8138 20.5346 13.1033 20.6812C13.3961 20.8246 13.6317 21.0045 13.8101 21.2212C13.9918 21.4345 14.1298 21.6444 14.2241 21.8511H14.2897V18.3535C14.2897 18.1592 14.4472 18.0017 14.6415 18.0017H16.0835C16.2778 18.0017 16.4353 18.1592 16.4353 18.3535V27.8882C16.4353 28.0825 16.2778 28.24 16.0835 28.24H14.6667C14.4724 28.24 14.3149 28.0825 14.3149 27.8882V27.0102H14.2241C14.1231 27.2235 13.98 27.4351 13.7949 27.6451C13.6132 27.8517 13.3759 28.0234 13.0831 28.16C12.7936 28.2967 12.4402 28.365 12.0229 28.365ZM12.7044 26.6703C13.0511 26.6703 13.3439 26.5769 13.5829 26.3903C13.8252 26.2003 14.0103 25.9354 14.1382 25.5954C14.2695 25.2555 14.3351 24.8572 14.3351 24.4006C14.3351 23.944 14.2712 23.5474 14.1433 23.2108C14.0154 22.8742 13.8303 22.6143 13.5879 22.431C13.3456 22.2477 13.0511 22.156 12.7044 22.156C12.351 22.156 12.0532 22.251 11.8108 22.441C11.5685 22.6309 11.3851 22.8942 11.2605 23.2308C11.136 23.5674 11.0738 23.9574 11.0738 24.4006C11.0738 24.8472 11.136 25.2422 11.2605 25.5854C11.3884 25.9254 11.5719 26.192 11.8108 26.3853C12.0532 26.5753 12.351 26.6703 12.7044 26.6703Z" fill="white"/>
<path d="M21.7073 28.39C20.9231 28.39 20.2449 28.225 19.6727 27.8951C19.1039 27.5618 18.6647 27.0985 18.355 26.5053C18.0454 25.9087 17.8906 25.2172 17.8906 24.4306C17.8906 23.6374 18.0454 22.9442 18.355 22.351C18.6647 21.7544 19.1039 21.2911 19.6727 20.9612C20.2449 20.6279 20.9231 20.4613 21.7073 20.4613C22.4915 20.4613 23.168 20.6279 23.7368 20.9612C24.309 21.2911 24.7499 21.7544 25.0595 22.351C25.3692 22.9442 25.524 23.6374 25.524 24.4306C25.524 25.2172 25.3692 25.9087 25.0595 26.5053C24.7499 27.0985 24.309 27.5618 23.7368 27.8951C23.168 28.225 22.4915 28.39 21.7073 28.39ZM21.7174 26.7403C22.0741 26.7403 22.372 26.6403 22.611 26.4403C22.8499 26.237 23.03 25.9604 23.1512 25.6104C23.2757 25.2605 23.338 24.8622 23.338 24.4156C23.338 23.969 23.2757 23.5708 23.1512 23.2208C23.03 22.8709 22.8499 22.5943 22.611 22.391C22.372 22.1877 22.0741 22.086 21.7174 22.086C21.3573 22.086 21.0543 22.1877 20.8086 22.391C20.5663 22.5943 20.3829 22.8709 20.2583 23.2208C20.1372 23.5708 20.0766 23.969 20.0766 24.4156C20.0766 24.8622 20.1372 25.2605 20.2583 25.6104C20.3829 25.9604 20.5663 26.237 20.8086 26.4403C21.0543 26.6403 21.3573 26.7403 21.7174 26.7403Z" fill="white"/>
</g>
</g>
</g>
<defs>
<filter id="filter0_ii_2213_434" x="0.0964355" y="-1.40723" width="33.9036" height="36.8145" filterUnits="userSpaceOnUse" color-interpolation-filters="sRGB">
<feFlood flood-opacity="0" result="BackgroundImageFix"/>
<feBlend mode="normal" in="SourceGraphic" in2="BackgroundImageFix" result="shape"/>
<feColorMatrix in="SourceAlpha" type="matrix" values="0 0 0 0 0 0 0 0 0 0 0 0 0 0 0 0 0 0 127 0" result="hardAlpha"/>
<feOffset dy="-1.40723"/>
<feGaussianBlur stdDeviation="0.703614"/>
<feComposite in2="hardAlpha" operator="arithmetic" k2="-1" k3="1"/>
<feColorMatrix type="matrix" values="0 0 0 0 1 0 0 0 0 1 0 0 0 0 1 0 0 0 0.25 0"/>
<feBlend mode="normal" in2="shape" result="effect1_innerShadow_2213_434"/>
<feColorMatrix in="SourceAlpha" type="matrix" values="0 0 0 0 0 0 0 0 0 0 0 0 0 0 0 0 0 0 127 0" result="hardAlpha"/>
<feOffset dy="1.40723"/>
<feGaussianBlur stdDeviation="0.703614"/>
<feComposite in2="hardAlpha" operator="arithmetic" k2="-1" k3="1"/>
<feColorMatrix type="matrix" values="0 0 0 0 1 0 0 0 0 1 0 0 0 0 1 0 0 0 0.25 0"/>
<feBlend mode="normal" in2="effect1_innerShadow_2213_434" result="effect2_innerShadow_2213_434"/>
</filter>
<filter id="filter1_di_2213_434" x="-7.76758" y="-14.6321" width="51.3626" height="40.5989" filterUnits="userSpaceOnUse" color-interpolation-filters="sRGB">
<feFlood flood-opacity="0" result="BackgroundImageFix"/>
<feColorMatrix in="SourceAlpha" type="matrix" values="0 0 0 0 0 0 0 0 0 0 0 0 0 0 0 0 0 0 127 0" result="hardAlpha"/>
<feOffset dy="0.703614"/>
<feGaussianBlur stdDeviation="1.40723"/>
<feComposite in2="hardAlpha" operator="out"/>
<feColorMatrix type="matrix" values="0 0 0 0 0 0 0 0 0 0 0 0 0 0 0 0 0 0 0.15 0"/>
<feBlend mode="normal" in2="BackgroundImageFix" result="effect1_dropShadow_2213_434"/>
<feBlend mode="normal" in="SourceGraphic" in2="effect1_dropShadow_2213_434" result="shape"/>
<feColorMatrix in="SourceAlpha" type="matrix" values="0 0 0 0 0 0 0 0 0 0 0 0 0 0 0 0 0 0 127 0" result="hardAlpha"/>
<feOffset dy="1.40723"/>
<feGaussianBlur stdDeviation="0.703614"/>
<feComposite in2="hardAlpha" operator="arithmetic" k2="-1" k3="1"/>
<feColorMatrix type="matrix" values="0 0 0 0 1 0 0 0 0 1 0 0 0 0 1 0 0 0 0.08 0"/>
<feBlend mode="normal" in2="shape" result="effect2_innerShadow_2213_434"/>
</filter>
<filter id="filter2_ddi_2213_434" x="0.258857" y="-2.36431" width="33.2394" height="38.7286" filterUnits="userSpaceOnUse" color-interpolation-filters="sRGB">
<feFlood flood-opacity="0" result="BackgroundImageFix"/>
<feColorMatrix in="SourceAlpha" type="matrix" values="0 0 0 0 0 0 0 0 0 0 0 0 0 0 0 0 0 0 127 0" result="hardAlpha"/>
<feOffset/>
<feGaussianBlur stdDeviation="3.98715"/>
<feColorMatrix type="matrix" values="0 0 0 0 0 0 0 0 0 0 0 0 0 0 0 0 0 0 0.08 0"/>
<feBlend mode="normal" in2="BackgroundImageFix" result="effect1_dropShadow_2213_434"/>
<feColorMatrix in="SourceAlpha" type="matrix" values="0 0 0 0 0 0 0 0 0 0 0 0 0 0 0 0 0 0 127 0" result="hardAlpha"/>
<feOffset/>
<feGaussianBlur stdDeviation="2.6581"/>
<feComposite in2="hardAlpha" operator="out"/>
<feColorMatrix type="matrix" values="0 0 0 0 0 0 0 0 0 0 0 0 0 0 0 0 0 0 0.04 0"/>
<feBlend mode="normal" in2="effect1_dropShadow_2213_434" result="effect2_dropShadow_2213_434"/>
<feBlend mode="normal" in="SourceGraphic" in2="effect2_dropShadow_2213_434" result="shape"/>
<feColorMatrix in="SourceAlpha" type="matrix" values="0 0 0 0 0 0 0 0 0 0 0 0 0 0 0 0 0 0 127 0" result="hardAlpha"/>
<feOffset dy="0.351807"/>
<feGaussianBlur stdDeviation="0.351807"/>
<feComposite in2="hardAlpha" operator="arithmetic" k2="-1" k3="1"/>
<feColorMatrix type="matrix" values="0 0 0 0 0 0 0 0 0 0 0 0 0 0 0 0 0 0 0.16 0"/>
<feBlend mode="normal" in2="shape" result="effect3_innerShadow_2213_434"/>
</filter>
<linearGradient id="paint0_linear_2213_434" x1="17.2176" y1="-8.5" x2="17.2176" y2="42.84" gradientUnits="userSpaceOnUse">
<stop stop-color="#0056A6"/>
<stop offset="1" stop-color="#0085FF"/>
</linearGradient>
<clipPath id="clip0_2213_434">
<rect x="0.0964355" width="33.9036" height="34" rx="8.44337" fill="white"/>
</clipPath>
</defs>
</svg>
